<?xml version="1.0" encoding="UTF-8" standalone="no"?>
<!-- Created with Inkscape (http://www.inkscape.org/) -->

<svg
   xmlns:dc="http://purl.org/dc/elements/1.1/"
   xmlns:cc="http://creativecommons.org/ns#"
   xmlns:rdf="http://www.w3.org/1999/02/22-rdf-syntax-ns#"
   xmlns:svg="http://www.w3.org/2000/svg"
   xmlns="http://www.w3.org/2000/svg"
   xmlns:xlink="http://www.w3.org/1999/xlink"
   xmlns:sodipodi="http://sodipodi.sourceforge.net/DTD/sodipodi-0.dtd"
   xmlns:inkscape="http://www.inkscape.org/namespaces/inkscape"
   id="svg5600"
   version="1.1"
   inkscape:version="0.48.4 r9939"
   width="185"
   height="138"
   sodipodi:docname="M_C_Figure 2_right.jpg">
  <metadata
     id="metadata5606">
    <rdf:RDF>
      <cc:Work
         rdf:about="">
        <dc:format>image/svg+xml</dc:format>
        <dc:type
           rdf:resource="http://purl.org/dc/dcmitype/StillImage" />
        <dc:title></dc:title>
      </cc:Work>
    </rdf:RDF>
  </metadata>
  <defs
     id="defs5604" />
  <sodipodi:namedview
     pagecolor="#ffffff"
     bordercolor="#666666"
     borderopacity="1"
     objecttolerance="10"
     gridtolerance="10"
     guidetolerance="10"
     inkscape:pageopacity="0"
     inkscape:pageshadow="2"
     inkscape:window-width="1600"
     inkscape:window-height="1178"
     id="namedview5602"
     showgrid="false"
     inkscape:zoom="4.8370203"
     inkscape:cx="86.585345"
     inkscape:cy="103.61407"
     inkscape:window-x="1920"
     inkscape:window-y="0"
     inkscape:window-maximized="1"
     inkscape:current-layer="layer2" />
  <g
     inkscape:groupmode="layer"
     id="layer2"
     inkscape:label="orig"
     style="opacity:0.33333333;display:none">
    <image
       width="185"
       height="138"
       xlink:href="file:///home/nordhofs/versioning/git/langsci/books/Simik/189/figures/M_C_Figure%202_right.jpg"
       id="image5608"
       x="0"
       y="0" />
  </g>
  <g
     inkscape:groupmode="layer"
     id="layer3"
     inkscape:label="paus"
     style="opacity:1">
    <path
       style="fill:none;stroke:#000000;stroke-width:1px;stroke-linecap:butt;stroke-linejoin:miter;stroke-opacity:1"
       d="m 33.476695,7.1631355 c 0,0 -0.258919,2.9501605 0,3.8008475 2.642312,8.681415 -10.983375,16.423538 -10.086864,18.273305 9.24795,19.081251 27.185655,-1.541687 32.01483,-11.110169 -5.41941,5.502808 -8.790286,20.643636 -0.804025,24.559322 0.680042,-7.419685 1.568613,-6.242661 2.505056,-7.198607 C 73.047846,25.104087 80.869247,10.484412 98.383475,9.7944914 118.76778,8.9915129 134.97061,19.143098 157.21528,22.224642 c 7.19901,0.997275 -3.59934,22.268654 4.32074,22.800782 2.18808,0.147011 3.95948,-0.970012 4.93491,-4.832477 2.40329,-9.516456 5.31721,-27.596753 7.97304,-25.631579 m -5.99028,17.170034 c -0.0934,1.743111 -0.3528,3.905641 -0.33042,5.656595 0.26436,20.682189 -2.32006,48.772528 2.03775,71.228533 0.29237,1.60805 3.94703,12.27966 3.94703,12.27966"
       id="path5630"
       inkscape:connector-curvature="0"
       sodipodi:nodetypes="csscccssssccscc" />
    <path
       style="fill:none;stroke:#000000;stroke-width:1px;stroke-linecap:butt;stroke-linejoin:miter;stroke-opacity:1"
       d="M 52.919492,122.06568 C 33.657778,106.28096 14.325617,99.764688 33.330509,80.402542 c 1.362032,-1.33336 3.800847,-2.04661 4.824152,-3.069915 1.023305,-1.023305 3.800848,-3.947034 2.777542,-7.016949 -1.91282,-7.664207 -13.866977,-3.749228 -12.864406,-12.864407 2.994502,-12.672782 13.384323,-9.088286 18.127118,-7.309322 2.338983,0.730932 11.06144,7.747881 10.67161,4.09322 -0.38983,-3.654661 -2.58557,-7.010723 -2.099816,-10.653875 3.733781,-0.477061 3.379765,2.699155 3.561681,4.05775 14.191925,9.318569 18.541402,23.791673 37.69102,21.471671 C 95.376665,53.836916 76.163614,50.577217 68.634534,38.447034 67.246808,20.89327 94.482243,27.233094 104.96186,28.360169 c 11.74059,1.16892 24.53571,2.226065 35.08475,3.362289 5.38005,1.479525 10.061,7.277424 13.15678,11.694915 8.64239,24.951658 5.41349,52.541182 7.16314,77.186437"
       id="path5632"
       inkscape:connector-curvature="0"
       sodipodi:nodetypes="ccscccscccccccc" />
  </g>
</svg>
