<?xml version="1.0" encoding="UTF-8" standalone="no"?>
<!-- Created with Inkscape (http://www.inkscape.org/) -->

<svg
   xmlns:dc="http://purl.org/dc/elements/1.1/"
   xmlns:cc="http://creativecommons.org/ns#"
   xmlns:rdf="http://www.w3.org/1999/02/22-rdf-syntax-ns#"
   xmlns:svg="http://www.w3.org/2000/svg"
   xmlns="http://www.w3.org/2000/svg"
   xmlns:xlink="http://www.w3.org/1999/xlink"
   xmlns:sodipodi="http://sodipodi.sourceforge.net/DTD/sodipodi-0.dtd"
   xmlns:inkscape="http://www.inkscape.org/namespaces/inkscape"
   id="svg5590"
   version="1.1"
   inkscape:version="0.48.4 r9939"
   width="198"
   height="141"
   sodipodi:docname="M_C_Figure 2_left.jpg">
  <metadata
     id="metadata5596">
    <rdf:RDF>
      <cc:Work
         rdf:about="">
        <dc:format>image/svg+xml</dc:format>
        <dc:type
           rdf:resource="http://purl.org/dc/dcmitype/StillImage" />
        <dc:title></dc:title>
      </cc:Work>
    </rdf:RDF>
  </metadata>
  <defs
     id="defs5594" />
  <sodipodi:namedview
     pagecolor="#ffffff"
     bordercolor="#666666"
     borderopacity="1"
     objecttolerance="10"
     gridtolerance="10"
     guidetolerance="10"
     inkscape:pageopacity="0"
     inkscape:pageshadow="2"
     inkscape:window-width="1600"
     inkscape:window-height="1178"
     id="namedview5592"
     showgrid="false"
     inkscape:zoom="1.6737589"
     inkscape:cx="229.72716"
     inkscape:cy="178.91887"
     inkscape:window-x="1920"
     inkscape:window-y="0"
     inkscape:window-maximized="1"
     inkscape:current-layer="layer4" />
  <g
     inkscape:groupmode="layer"
     id="layer4"
     inkscape:label="orig"
     style="opacity:0.71604937;display:none">
    <image
       width="198"
       height="141"
       xlink:href="file:///home/nordhofs/versioning/git/langsci/books/Simik/189/figures/M_C_Figure%202_left.jpg"
       id="image5598"
       x="0"
       y="0" />
  </g>
  <g
     inkscape:groupmode="layer"
     id="layer5"
     inkscape:label="paus">
    <path
       style="fill:none;stroke:#000000;stroke-width:1px;stroke-linecap:butt;stroke-linejoin:miter;stroke-opacity:1"
       d="m 14.786322,3.2759732 c 11.106991,9.7844548 -1.211146,12.5313688 -4.122156,21.6907508 -2.848124,8.961516 10.280477,13.52752 18.486011,12.31779 4.166696,-0.61429 8.549585,-3.835829 9.927959,-7.815628 1.95018,-5.630779 3.01325,-11.279908 5.914529,-16.68742"
       id="path5694"
       inkscape:connector-curvature="0"
       sodipodi:nodetypes="csssc" />
    <path
       style="fill:none;stroke:#000000;stroke-width:1px;stroke-linecap:butt;stroke-linejoin:miter;stroke-opacity:1"
       d="m 39.078136,30.102586 c 0.422466,3.168498 -0.312657,6.726774 1.267399,9.505493 0.82729,1.454889 3.769165,2.538129 4.858363,1.267398 1.905925,-2.223579 0.985755,-5.773707 1.478633,-8.66056 C 59.98212,23.867382 56.487847,29.02156 64.848583,21.442026 79.361489,1.021074 98.391771,1.825269 117.1787,6.4590856 c 11.64067,2.8711829 23.05279,8.0685684 33.64178,8.2234784 4.13476,0.06049 9.4355,0.02878 12.04029,4.858363 6.83471,12.672364 -9.00862,27.757655 7.18194,23.446883 2.62817,-0.699755 2.64365,-4.84555 3.6294,-7.380348"
       id="path5696"
       inkscape:connector-curvature="0"
       sodipodi:nodetypes="cssccssssc" />
    <path
       style="fill:none;stroke:#000000;stroke-width:1px;stroke-linecap:butt;stroke-linejoin:miter;stroke-opacity:1"
       d="M 180.39313,10.457901 C 165.43099,53.526223 171.20394,94.388684 182.50546,134.663"
       id="path5698"
       inkscape:connector-curvature="0"
       sodipodi:nodetypes="cc" />
    <path
       style="fill:none;stroke:#000000;stroke-width:1px;stroke-linecap:butt;stroke-linejoin:miter;stroke-opacity:1"
       d="M 51.118427,137.1978 C 29.495048,125.66918 10.300999,120.98415 14.152622,96.218568 14.980541,90.895122 35.004023,74.452479 30.840043,69.391955 30.219921,68.638315 17.160384,65.624381 17.954819,63.68866 c 3.982394,-9.703506 5.097682,-17.09687 27.037846,-12.885224 3.241143,0.622172 -1.246028,-8.722896 1.901099,-9.716725 3.000463,-0.947514 3.811953,5.049593 6.125762,7.181927 1.323107,1.219334 3.373902,1.474701 4.647129,2.746032 8.320468,8.30808 13.947912,19.286107 31.051276,18.799752"
       id="path5700"
       inkscape:connector-curvature="0"
       sodipodi:nodetypes="csssssssc" />
    <path
       style="fill:none;stroke:#000000;stroke-width:1px;stroke-linecap:butt;stroke-linejoin:miter;stroke-opacity:1"
       d="m 158.42488,134.87424 c -2.37164,-25.57123 -3.42541,-50.812999 -7.81563,-76.888876"
       id="path5702"
       inkscape:connector-curvature="0"
       sodipodi:nodetypes="cc" />
    <path
       style="fill:none;stroke:#000000;stroke-width:1px;stroke-linecap:butt;stroke-linejoin:miter;stroke-opacity:1"
       d="M 165.60681,134.663 C 159.4161,47.198435 132.37,-2.9216724 66.600318,19.216572"
       id="path5704"
       inkscape:connector-curvature="0"
       sodipodi:nodetypes="cc" />
    <path
       style="fill:none;stroke:#000000;stroke-width:1px;stroke-linecap:butt;stroke-linejoin:miter;stroke-opacity:1"
       d="m 139.20266,24.821757 c -1.05617,0.633699 -8.87179,7.815627 -8.87179,7.815627 l -0.015,6.002024 c -5.63799,-1.259233 -15.39038,6.155674 -15.40502,-4.100926 1.01011,7.364635 -20.040965,9.492335 -20.489613,-1.478632 -9.520526,12.640006 -8.851785,7.001865 -11.107863,-1.689865 -3.349598,9.59286 -13.525539,15.730903 -15.08505,-0.211234 C 63.484528,46.3996 56.963171,46.681332 55.765557,30.736285 l -4.377602,3.835711 5.768738,16.07146"
       id="path5706"
       inkscape:connector-curvature="0"
       sodipodi:nodetypes="cccccccccc" />
  </g>
</svg>
